<?xml version="1.0" encoding="UTF-8"?>
<svg viewBox="0 0 976 1025" xmlns="http://www.w3.org/2000/svg">
 <g fill-rule="evenodd" stroke-width=".5">
  <path d="m0 512.5v-512.5h976v1025h-976v-512.5zm524-389.5l0.5 1 0.3 0.2 0.2 0.3 0.2 0.3 0.3 0.2 0.5 1 0.5 1 0.3 0.2 0.2 0.3 0.2 0.3 0.3 0.2 0.3 0.2 0.2 0.3 0.2 0.3 0.3 0.2 0.5-1 0.5-1 0.5-1 0.5-1 0.5-1 0.5-1 12.7-27.8q12.8-27.7 15.8-29.2t5.8-1.2q2.7 0.2 5-3 2.2-3.3 4.7-4.3t10-0.5 17.7 4.2q10.3 3.8 23.8 16.8t23.5 32 13.3 34.8q3.2 15.7 4.2 18 1 2.2 2 2.2t3.2 3.5q2.3 3.5 2.8 4.5l0.5 1 0.3 0.2 0.2 0.3 0.2 0.3 0.3 0.2 0.3-0.2 0.2-0.3 1-0.5q1-0.5 1.5-1.8 0.5-1.2 4-3.2t3.5-3 6.5-6.2q6.5-5.3 12.5-5.8t12 4.2q6 4.8 6.2 5.8 0.3 1 19 17.5 18.8 16.5 20.8 19.5t5 5.2q3 2.3 6.5 6 3.5 3.8 9.5 8.3t6 5.5 4 3.5 4.2 3.5q0.3 1 8 7.5 7.8 6.5 8 7.5 0.3 1 9.6 9.2 9.2 8.3 12.7 12 3.5 3.8 9.5 8.3t6 5.5 1 1.2q1 0.3 2 2 1 1.8 3.5 3.6 2.5 1.7 6 5.4 3.5 3.8 7.5 6.3t4.2 3.5q0.3 1 6.6 6 6.2 5 6.4 6 0.3 1 5 5.2 4.8 4.3 8.3 8 3.5 3.8 6 5.6 2.5 1.7 6 5.4 3.5 3.8 15.7 14.3 12.3 10.5 16.6 14 4.2 3.5 4.2 4.5t3 2 3.8 2.5q0.7 1.5 2.7 11.5t0.5 13-11 97-13 133-6.2 43.2q-2.8 4.3-28.3 17.3t-114.5 57.5-119 59-85.5 41-76.5 36.5-90.5 43.5-97 47-34.5 13.5-9.2-1.7q-2.3-1.8-3.8-7.8t-2.5-7.5-124.3-125.3q-123.2-123.7-124-132-0.7-8.2 0.3-10.7t8-134.5 10.5-137 117.2-51.2l113.8-46.3 1-0.5 1-0.5 1-0.3 1-0.2v-2l-1-0.2-1-0.3-0.2-0.3-0.3-0.2-0.5-1q-0.5-1-2.2-2-1.8-1-6.3-7t-5.5-6.2q-1-0.3-4-3.8t-29-40-36.2-53.8q-10.3-17.2-10.3-36.2t5-30.5 10.7-17.3q5.8-5.7 9.3-9.4 3.5-3.8 4.5-4 1-0.3 4-3.6 3-3.2 19-8.4 16-5.3 30-8.8t51 0.5 42 6.7l5 2.8 8.5-20q8.5-20 9.5-20t-2.2-7q-3.3-7-2.8-11.5t4.8-11.3q4.2-6.7 7.7-11.2t8-6 15.5-2.5 16.2 1.3q5.3 2.2 19 12.7 13.8 10.5 17.3 14.3 3.5 3.7 14.5 13.4 11 9.8 17.2 17.8 6.3 8 17.8 24.5t12 17.5z" fill="#fff" stroke="#fff"/>
  <path d="m474 878.5l-173 83-0.2 0.3-0.3 0.2-0.3 0.2-0.2 0.3-1.5 0.3-1.5 0.2 0.2-15.5q0.3-15.5 4.3-126t3.7-119q-0.2-8.5 1.3-8.7 1.5-0.3 304.5-131.8t314-135.8q11-4.2-0.2 116.3-11.3 120.5-144.6 186.7-133.2 66.3-306.2 149.3z" fill="#8e908c" stroke="#8e908c"/>
  <path d="m524 123l0.5 1 0.3 0.2 0.2 0.3 0.2 0.3 0.3 0.2 0.5 1 0.5 1 0.3 0.2 0.2 0.3 0.2 0.3 0.3 0.2 0.3 0.2 0.2 0.3 0.2 0.3 0.3 0.2 0.5-1 0.5-1 0.5-1 0.5-1 0.5-1 0.5-1 12.7-27.8q12.8-27.7 15.8-29.2t5.8-1.2q2.7 0.2 5-3 2.2-3.3 4.7-4.3t10-0.5 17.7 4.2q10.3 3.8 23.8 16.8t23.5 32 13.3 34.8q3.2 15.7 4.2 18 1 2.2 2 2.2t3.2 3.5q2.3 3.5 2.8 4.5l0.5 1 0.3 0.2 0.2 0.3 0.2 0.3 0.3 0.2 0.3-0.2 0.2-0.3 1-0.5q1-0.5 1.5-1.8 0.5-1.2 4-3.2t3.5-3 6.5-6.2q6.5-5.3 12.5-5.8t12 4.2q6 4.8 6.2 5.8 0.3 1 19 17.5 18.8 16.5 20.8 19.5t5 5.2q3 2.3 6.5 6 3.5 3.8 9.5 8.3t6 5.5 4 3.5 4.2 3.5q0.3 1 8 7.5 7.8 6.5 8 7.5 0.3 1 9.6 9.2 9.2 8.3 12.7 12 3.5 3.8 9.5 8.3t6 5.5 1 1.2q1 0.3 2 2 1 1.8 3.5 3.6 2.5 1.7 6 5.4 3.5 3.8 7.5 6.3t4.2 3.5q0.3 1 6.6 6 6.2 5 6.4 6 0.3 1 5 5.2 4.8 4.3 8.3 8 3.5 3.8 6 5.6 2.5 1.7 6 5.4 3.5 3.8 15.7 14.3 12.3 10.5 16.6 14 4.2 3.5 4.2 4.5t3 2 3.8 2.5q0.7 1.5 2.7 11.5t0.5 13-11 97-13 133-6.2 43.2q-2.8 4.3-28.3 17.3t-114.5 57.5-119 59-85.5 41-76.5 36.5-90.5 43.5-97 47-34.5 13.5-9.2-1.7q-2.3-1.8-3.8-7.8t-2.5-7.5-124.3-125.3q-123.2-123.7-124-132-0.7-8.2 0.3-10.7t8-134.5 10.5-137 117.2-51.2l113.8-46.3 1-0.5 1-0.5 1-0.3 1-0.2v-2l-1-0.2-1-0.3-0.2-0.3-0.3-0.2-0.5-1q-0.5-1-2.2-2-1.8-1-6.3-7t-5.5-6.2q-1-0.3-4-3.8t-29-40-36.2-53.8q-10.3-17.2-10.3-36.2t5-30.5 10.7-17.3q5.8-5.7 9.3-9.4 3.5-3.8 4.5-4 1-0.3 4-3.6 3-3.2 19-8.4 16-5.3 30-8.8t51 0.5 42 6.7l5 2.8 8.5-20q8.5-20 9.5-20t-2.2-7q-3.3-7-2.8-11.5t4.8-11.3q4.2-6.7 7.7-11.2t8-6 15.5-2.5 16.2 1.3q5.3 2.2 19 12.7 13.8 10.5 17.3 14.3 3.5 3.7 14.5 13.4 11 9.8 17.2 17.8 6.3 8 17.8 24.5t12 17.5zm-56.8 315.2l-0.2 0.3-1.5 0.5-1.5 0.5-1 0.5-1 0.5h-3l0.2-0.3 0.3-0.2 0.5-1 0.5-1 0.5-1 0.5-1 0.5-1 0.5-1 0.5-1q0.5-1 19.5-41t19-46v-6l-0.5-1-0.5-1-0.3-0.2-0.2-0.3-1-0.5-1-0.5-0.2-0.3-0.3-0.2-0.3-0.2-0.2-0.3-1.5-0.5-1.5-0.5-4.8 0.7q-4.7 0.8-7.7 5.3t-25 51-21.5 52 1.2 6.7q0.8 1.3-33.7 16.8t-36 16l-1.5 0.5-0.2 0.3-0.3 0.2-0.3 0.2-0.2 0.3-1.5 0.5-1.5 0.5-1 0.5-1 0.5h-2l0.2-0.3 0.3-0.2 0.3-0.2 0.2-0.3 0.2-0.3 0.3-0.2 0.3-0.2 0.2-0.3 0.2-0.3 0.3-0.2 0.3-0.2 0.2-0.3 0.2-0.3 0.3-0.2 0.3-0.2 0.2-0.3 0.2-0.3 0.3-0.2 0.3-0.2 0.2-0.3 0.2-0.3 0.3-0.2 0.5-1q0.5-1 11-26.5l10.5-25.5 0.3-0.2 0.2-0.3 1.5-0.5 1.5-0.5 0.2-0.3 0.3-0.2 0.3-0.2 0.2-0.3 0.2-0.3 0.3-0.2 0.3-0.2 0.2-0.3 0.2-0.3 0.3-0.2 0.3-0.2 0.2-0.3 0.2-0.3 0.3-0.2v3l0.5 7.5q0.5 7.5 1.8 8.7 1.2 1.3 1.4 1.6l0.3 0.2 0.3 0.2 0.2 0.3 1 0.5 1 0.5h9l1-0.5q1-0.5 2.8-1.8 1.7-1.2 19.2-110.7t22-141.5 0.5-40.5-27.7-50.7q-23.8-42.3-24.6-44.6l-0.7-2.2 0.5-1 0.5-1 0.3-0.2 0.2-0.3 0.2-0.3 0.3-0.2 0.5-1 0.5-1 0.3-0.2 0.2-0.3 0.2-0.3 0.3-0.2 0.3-0.2 0.2-0.3 0.2-0.3 0.3-0.2 0.3-0.2 0.2-0.3h7.5q7.5 0 17.7 8.3 10.3 8.2 10.6 9.2 0.2 1 4.2 3.5t6 5.5 8 7.5 9.5 8.3q3.5 3.7 10.3 12.4 6.7 8.8 24.2 34.8t17.8 27q0.2 1 1.2 1t7.2 10q6.3 10 6.6 11.5 0.2 1.5 1.2 1.5t7.2 10q6.3 10 12.3 16.5t4 16.5-18.5 63-30.2 93q-13.8 40-29 46.5-15.3 6.5-15.6 6.7zm138.6-63.2l0.2 2-1.5 0.2-1.5 0.3-1 0.5-1 0.5-1 0.5-1 0.5-1 0.5-1 0.5-1 0.5-1 0.5-1 0.3-1 0.2 0.2-2.5 0.3-2.5 0.5-2.5q0.5-2.5 2-9t5-28.5 2.5-24.5l-1-2.5-0.3-0.2-0.2-0.3-0.2-0.3-0.3-0.2-0.3-0.2-0.2-0.3-0.2-0.3-0.3-0.2-0.3-0.2-0.2-0.3-1.5-0.5-1.5-0.5h-7l-3.2 2.3q-3.3 2.2-12 44.2-8.8 42-24 48.5-15.3 6.5-15.6 6.7l-0.2 0.3-1 0.5-1 0.5-1.5 0.5-1.5 0.5-1 0.3-1 0.2 0.2-1 0.3-1 0.5-1.5 0.5-1.5 18-54.5q18-54.5 28-89t15.5-56.5 5-32.5-5.5-38.5-4.5-35 2.2-12.8q1.8-5.7 7.3-4.4 5.5 1.2 6 2.4 0.5 1.3 1.5 1.6 1 0.2 2 2 1 1.7 2 2 1 0.2 4.5 4 3.5 3.7 8.3 10 4.7 6.2 11.2 18.2t10.2 30.2q3.8 18.3 14.8 32.8t13.2 17.2q2.3 2.8-11.4 23.3-13.8 20.5-14.8 20.5t-8.2 11q-7.3 11-18.8 43t-11.5 46.5 0.5 20 0.8 7.5zm-181.8-230l0.5 1 0.5 1 0.5 1 0.5 1 0.5 1 0.5 1 0.5 1 0.3 1 0.2 1-1.5-0.2-1.5-0.3-0.2-0.3-0.3-0.2-0.3-0.2-0.2-0.3-1.5-0.5-1.5-0.5-15-7.7q-15-7.8-15-8.8t-5.2-4.5q-5.3-3.5-4.3-7.5t6.3-17q5.2-13 7.4-11 2.3 2 15.3 25.5t13.5 24.5zm147.2 45.5l-0.2 1.5h-1.5q-1.5 0-13.7-19.5-12.3-19.5-2.8-40t15 9.5 4.5 38.5-1.3 10zm-143-15.7l1.3-0.8 0.3-0.2 0.2-0.3 1-0.3 1-0.2-0.2 1-0.3 1-17 108q-17 108-17.5 110.5l-0.5 2.5-0.5 3-0.5 3-0.5 1-0.5 1v-6.5q0-6.5 0-32.5t-25.7-63.8q-25.8-37.7-31.8-38.2l-6-0.5-1 0.5-1 0.5-0.2 0.3-0.3 0.2-0.3 0.2-0.2 0.3-0.2 0.3-0.3 0.2-0.3 0.2-0.2 0.3-0.2 0.3-0.3 0.2-0.5 1-0.5 1v5.5q0 5.5 23 39.5t23 50.5-0.3 25.5l-0.2 9-1-0.2-1-0.3-0.2-0.3-0.3-0.2-0.5-1-0.5-1-0.5-1-0.5-1-0.3-0.2-0.2-0.3-0.2-0.3-0.3-0.2-0.3-0.2q-0.2-0.3-4-5.6-3.7-5.2-12.4-13.4-8.8-8.3-11.8-12-3-3.8-5.5-5.6-2.5-1.7-6-5.4-3.5-3.8-6.5-6-3-2.3-7.5-7.6-4.5-5.2-5.5-5.4-1-0.3-2-2-1-1.8-4-3.8t-7.5-8-5.5-6.2q-1-0.3-2-2-1-1.8-2-2-1-0.3-4-4.6-3-4.2-4-4.4-1-0.3-2-2-1-1.8-2-2-1-0.3-26.5-36.8t-33.3-49.8q-7.7-13.2-8.2-23.7t4-20.5 12.2-16.5q7.8-6.5 7.8-7.5t1.5-1.8q1.5-0.7 22-7.7t26-7.5 36 3 47 15.5 36.5 23 25.5 11.5 6.7-0.2zm507 214.2l0.3 1 0.3 0.2 0.2 0.3 1 0.5 1 0.5 0.2 0.3 0.3 0.2v3l-0.3 0.2-0.2 0.3-1.5 0.5-1.5 0.5-0.2 0.3-0.3 0.2-0.3 0.2q-0.2 0.3-309.7 134.8t-315.5 136-7.5-0.8q-1.5-2.2-5.5-4.7t-4-3.5-1-1.2q-1-0.3-2-2-1-1.8-6.5-4.8t-5.5-4-1-1-2.2-2.5q-1.3-2.5-28-29.3-26.8-26.7-30.3-30.4-3.5-3.8-4.5-4-1-0.3-13.5-12.8t-16-16.2q-3.5-3.8-14.5-13.3t-13.5-13-20.7-20.5q-18.3-17-29.6-27.5-11.2-10.5-13.7-14t-8.7-9l-6.3-5.5-0.3-0.2-0.2-0.3-0.2-0.3-0.3-0.2-0.3-0.2-0.2-0.3-0.2-0.3-0.3-0.2-0.3-0.2-0.2-0.3-0.2-0.3-0.3-0.2-0.3-0.2-0.2-0.3 0.2-0.3 0.3-0.2 0.3-0.2 0.2-0.3 1-0.5 1-0.5 1-0.5 1-0.5 107.8-43.7q107.7-43.8 108-44.8 0.2-1 2.4 0 2.3 1 4.6 4 2.2 3 4 4 1.7 1 2 2 0.2 1 17.4 16.5 17.3 15.5 27.8 30.5t1.5 36.5-36.7 42.3q-27.8 20.7-28.8 21-1 0.2-1 1.2t-3.2 4q-3.3 3-4.6 6.2-1.2 3.3-2.4 5-1.3 1.8-1.3 6.3t0.5 6l0.5 1.5 0.3 0.2 0.2 0.3 0.2 0.3 0.3 0.2 0.3 0.2 0.2 0.3 1 0.5 1 0.5h6q6 0 208.5-90.5t204.3-92.8q1.7-2.2 1.7-6.2v-4l-0.5-1.5-0.5-1.5-0.3-0.2-0.2-0.3-0.2-0.3q-0.3-0.2-1.6-1.4-1.2-1.3-28.7-2.8t-29.7 0.2l-2.3 1.8-0.3 0.2-0.2 0.3-0.2 0.3-0.3 0.2-0.5 1-0.5 1 0.5 5q0.5 5 1.8 6.8 1.2 1.7 2.7 2.2l1.5 0.5 0.2 0.3 0.3 0.2v1l-0.3 0.2-0.2 0.3-1 0.5-1 0.5-1 0.5-1 0.5-1.5 0.5-1.5 0.5-1 0.5-1 0.5-0.2 0.3-0.3 0.2-0.3-0.2-0.2-0.3-0.2-0.3-0.3-0.2v-15.5q0-15.5 11.3-45.3 11.2-29.7 28.2-54 17-24.2 18-24.2t5.2-7.5q4.3-7.5 4.3-13.5t-2.3-9.2q-2.2-3.3 1.3-5.6 3.5-2.2 6.5-5.4 3-3.3 5-4.3t14.2 9.7q12.3 10.8 12.6 11.8 0.2 1 12 11.5 11.7 10.5 26.7 24t15.3 14.5q0.2 1 5.7 5t9 7.8q3.5 3.7 22 20.7t19.5 17.3q1 0.2 4.5 4 3.5 3.7 5 6 1.5 2.2 6 4.4 4.5 2.3 10 9 5.5 6.8 7.3 7.8 1.7 1 2 2 0.2 1 3.7 3t7 5.8q3.5 3.7 18.5 17 15 13.2 17.5 16.7t6.5 6 4.2 3.5zm-461.2 489.5l-173 83-0.2 0.3-0.3 0.2-0.3 0.2-0.2 0.3-1.5 0.3-1.5 0.2 0.2-15.5q0.3-15.5 4.3-126t3.7-119q-0.2-8.5 1.3-8.7 1.5-0.3 304.5-131.8t314-135.8q11-4.2-0.2 116.3-11.3 120.5-144.6 186.7-133.2 66.3-306.2 149.3zm-198.8 53.5l-0.2 10-1-0.2-1-0.3-0.2-0.3-0.3-0.2-0.3-0.2-0.2-0.3-1-0.5-1-0.5-0.2-0.3-0.3-0.2-8.7-9.2q-8.8-9.3-9.8-9.6-1-0.2-2-2-1-1.7-2-2-1-0.2-8-8-7-7.7-8-8-1-0.2-11.5-11.4-10.5-11.3-89.7-90.6-79.3-79.2-80.8-85.7t-1.5-16 6.3-119.5q6.2-110 14-103.5 7.7 6.5 8 7.5 0.2 1 11.2 10.5t13.5 13 4.3 4.5q1.7 1 2 2 0.2 1 2 2 1.7 1 2 2 0.2 1 7.7 7t12 11.2q4.5 5.3 18.5 18 14 12.8 17.5 16.6 3.5 3.7 17.3 17 13.7 13.2 14 14.2 0.2 1 11.4 11.5 11.3 10.5 16.8 15.5t5.8 6q0.2 1 11.4 11.5 11.3 10.5 25 22.7 13.8 12.3 14.8 12.6 1 0.2-3.2 121.7-4.3 121.5-4.6 131.5z" fill="#12130f" stroke="#12130f"/>
  <path d="m935.2 389l0.3 1 0.3 0.2 0.2 0.3 1 0.5 1 0.5 0.2 0.3 0.3 0.2v3l-0.3 0.2-0.2 0.3-1.5 0.5-1.5 0.5-0.2 0.3-0.3 0.2-0.3 0.2q-0.2 0.3-309.7 134.8t-315.5 136-7.5-0.8q-1.5-2.2-5.5-4.7t-4-3.5-1-1.2q-1-0.3-2-2-1-1.8-6.5-4.8t-5.5-4-1-1-2.2-2.5q-1.3-2.5-28-29.3-26.8-26.7-30.3-30.4-3.5-3.8-4.5-4-1-0.3-13.5-12.8t-16-16.2q-3.5-3.8-14.5-13.3t-13.5-13-20.7-20.5q-18.3-17-29.6-27.5-11.2-10.5-13.7-14t-8.7-9l-6.3-5.5-0.3-0.2-0.2-0.3-0.2-0.3-0.3-0.2-0.3-0.2-0.2-0.3-0.2-0.3-0.3-0.2-0.3-0.2-0.2-0.3-0.2-0.3-0.3-0.2-0.3-0.2-0.2-0.3 0.2-0.3 0.3-0.2 0.3-0.2 0.2-0.3 1-0.5 1-0.5 1-0.5 1-0.5 107.8-43.7q107.7-43.8 108-44.8 0.2-1 2.4 0 2.3 1 4.6 4 2.2 3 4 4 1.7 1 2 2 0.2 1 17.4 16.5 17.3 15.5 27.8 30.5t1.5 36.5-36.7 42.3q-27.8 20.7-28.8 21-1 0.2-1 1.2t-3.2 4q-3.3 3-4.6 6.2-1.2 3.3-2.4 5-1.3 1.8-1.3 6.3t0.5 6l0.5 1.5 0.3 0.2 0.2 0.3 0.2 0.3 0.3 0.2 0.3 0.2 0.2 0.3 1 0.5 1 0.5h6q6 0 208.5-90.5t204.3-92.8q1.7-2.2 1.7-6.2v-4l-0.5-1.5-0.5-1.5-0.3-0.2-0.2-0.3-0.2-0.3q-0.3-0.2-1.6-1.4-1.2-1.3-28.7-2.8t-29.7 0.2l-2.3 1.8-0.3 0.2-0.2 0.3-0.2 0.3-0.3 0.2-0.5 1-0.5 1 0.5 5q0.5 5 1.8 6.8 1.2 1.7 2.7 2.2l1.5 0.5 0.2 0.3 0.3 0.2v1l-0.3 0.2-0.2 0.3-1 0.5-1 0.5-1 0.5-1 0.5-1.5 0.5-1.5 0.5-1 0.5-1 0.5-0.2 0.3-0.3 0.2-0.3-0.2-0.2-0.3-0.2-0.3-0.3-0.2v-15.5q0-15.5 11.3-45.3 11.2-29.7 28.2-54 17-24.2 18-24.2t5.2-7.5q4.3-7.5 4.3-13.5t-2.3-9.2q-2.2-3.3 1.3-5.6 3.5-2.2 6.5-5.4 3-3.3 5-4.3t14.2 9.7q12.3 10.8 12.6 11.8 0.2 1 12 11.5 11.7 10.5 26.7 24t15.3 14.5q0.2 1 5.7 5t9 7.8q3.5 3.7 22 20.7t19.5 17.3q1 0.2 4.5 4 3.5 3.7 5 6 1.5 2.2 6 4.4 4.5 2.3 10 9 5.5 6.8 7.3 7.8 1.7 1 2 2 0.2 1 3.7 3t7 5.8q3.5 3.7 18.5 17 15 13.2 17.5 16.7t6.5 6 4.2 3.5z" fill="#8f908c" stroke="#8f908c"/>
  <path d="m275.2 932l-0.2 10-1-0.2-1-0.3-0.2-0.3-0.3-0.2-0.3-0.2-0.2-0.3-1-0.5-1-0.5-0.2-0.3-0.3-0.2-8.7-9.2q-8.8-9.3-9.8-9.6-1-0.2-2-2-1-1.7-2-2-1-0.2-8-8-7-7.7-8-8-1-0.2-11.5-11.4-10.5-11.3-89.7-90.6-79.3-79.2-80.8-85.7t-1.5-16 6.3-119.5q6.2-110 14-103.5 7.7 6.5 8 7.5 0.2 1 11.2 10.5t13.5 13 4.3 4.5q1.7 1 2 2 0.2 1 2 2 1.7 1 2 2 0.2 1 7.7 7t12 11.2q4.5 5.3 18.5 18 14 12.8 17.5 16.6 3.5 3.7 17.3 17 13.7 13.2 14 14.2 0.2 1 11.4 11.5 11.3 10.5 16.8 15.5t5.8 6q0.2 1 11.4 11.5 11.3 10.5 25 22.7 13.8 12.3 14.8 12.6 1 0.2-3.2 121.7-4.3 121.5-4.6 131.5z" fill="#8e908c" stroke="#8e908c"/>
  <path d="m428.2 174.8l1.3-0.8 0.3-0.2 0.2-0.3 1-0.3 1-0.2-0.2 1-0.3 1-17 108q-17 108-17.5 110.5l-0.5 2.5-0.5 3-0.5 3-0.5 1-0.5 1v-6.5q0-6.5 0-32.5t-25.7-63.8q-25.8-37.7-31.8-38.2l-6-0.5-1 0.5-1 0.5-0.2 0.3-0.3 0.2-0.3 0.2-0.2 0.3-0.2 0.3-0.3 0.2-0.3 0.2-0.2 0.3-0.2 0.3-0.3 0.2-0.5 1-0.5 1v5.5q0 5.5 23 39.5t23 50.5-0.3 25.5l-0.2 9-1-0.2-1-0.3-0.2-0.3-0.3-0.2-0.5-1-0.5-1-0.5-1-0.5-1-0.3-0.2-0.2-0.3-0.2-0.3-0.3-0.2-0.3-0.2q-0.2-0.3-4-5.6-3.7-5.2-12.4-13.4-8.8-8.3-11.8-12-3-3.8-5.5-5.6-2.5-1.7-6-5.4-3.5-3.8-6.5-6-3-2.3-7.5-7.6-4.5-5.2-5.5-5.4-1-0.3-2-2-1-1.8-4-3.8t-7.5-8-5.5-6.2q-1-0.3-2-2-1-1.8-2-2-1-0.3-4-4.6-3-4.2-4-4.4-1-0.3-2-2-1-1.8-2-2-1-0.3-26.5-36.8t-33.3-49.8q-7.7-13.2-8.2-23.7t4-20.5 12.2-16.5q7.8-6.5 7.8-7.5t1.5-1.8q1.5-0.7 22-7.7t26-7.5 36 3 47 15.5 36.5 23 25.5 11.5 6.7-0.2z" fill="#fff" stroke="#fff"/>
  <g fill="#fefefe" stroke="#fefefe">
   <path d="m467.2 438.2l-0.2 0.3-1.5 0.5-1.5 0.5-1 0.5-1 0.5h-3l0.2-0.3 0.3-0.2 0.5-1 0.5-1 0.5-1 0.5-1 0.5-1 0.5-1 0.5-1q0.5-1 19.5-41t19-46v-6l-0.5-1-0.5-1-0.3-0.2-0.2-0.3-1-0.5-1-0.5-0.2-0.3-0.3-0.2-0.3-0.2-0.2-0.3-1.5-0.5-1.5-0.5-4.8 0.7q-4.7 0.8-7.7 5.3t-25 51-21.5 52 1.2 6.7q0.8 1.3-33.7 16.8t-36 16l-1.5 0.5-0.2 0.3-0.3 0.2-0.3 0.2-0.2 0.3-1.5 0.5-1.5 0.5-1 0.5-1 0.5h-2l0.2-0.3 0.3-0.2 0.3-0.2 0.2-0.3 0.2-0.3 0.3-0.2 0.3-0.2 0.2-0.3 0.2-0.3 0.3-0.2 0.3-0.2 0.2-0.3 0.2-0.3 0.3-0.2 0.3-0.2 0.2-0.3 0.2-0.3 0.3-0.2 0.3-0.2 0.2-0.3 0.2-0.3 0.3-0.2 0.5-1q0.5-1 11-26.5l10.5-25.5 0.3-0.2 0.2-0.3 1.5-0.5 1.5-0.5 0.2-0.3 0.3-0.2 0.3-0.2 0.2-0.3 0.2-0.3 0.3-0.2 0.3-0.2 0.2-0.3 0.2-0.3 0.3-0.2 0.3-0.2 0.2-0.3 0.2-0.3 0.3-0.2v3l0.5 7.5q0.5 7.5 1.8 8.7 1.2 1.3 1.4 1.6l0.3 0.2 0.3 0.2 0.2 0.3 1 0.5 1 0.5h9l1-0.5q1-0.5 2.8-1.8 1.7-1.2 19.2-110.7t22-141.5 0.5-40.5-27.7-50.7q-23.8-42.3-24.6-44.6l-0.7-2.2 0.5-1 0.5-1 0.3-0.2 0.2-0.3 0.2-0.3 0.3-0.2 0.5-1 0.5-1 0.3-0.2 0.2-0.3 0.2-0.3 0.3-0.2 0.3-0.2 0.2-0.3 0.2-0.3 0.3-0.2 0.3-0.2 0.2-0.3h7.5q7.5 0 17.7 8.3 10.3 8.2 10.6 9.2 0.2 1 4.2 3.5t6 5.5 8 7.5 9.5 8.3q3.5 3.7 10.3 12.4 6.7 8.8 24.2 34.8t17.8 27q0.2 1 1.2 1t7.2 10q6.3 10 6.6 11.5 0.2 1.5 1.2 1.5t7.2 10q6.3 10 12.3 16.5t4 16.5-18.5 63-30.2 93q-13.8 40-29 46.5-15.3 6.5-15.6 6.7z"/>
   <path d="m605.8 375l0.2 2-1.5 0.2-1.5 0.3-1 0.5-1 0.5-1 0.5-1 0.5-1 0.5-1 0.5-1 0.5-1 0.5-1 0.3-1 0.2 0.2-2.5 0.3-2.5 0.5-2.5q0.5-2.5 2-9t5-28.5 2.5-24.5l-1-2.5-0.3-0.2-0.2-0.3-0.2-0.3-0.3-0.2-0.3-0.2-0.2-0.3-0.2-0.3-0.3-0.2-0.3-0.2-0.2-0.3-1.5-0.5-1.5-0.5h-7l-3.2 2.3q-3.3 2.2-12 44.2-8.8 42-24 48.5-15.3 6.5-15.6 6.7l-0.2 0.3-1 0.5-1 0.5-1.5 0.5-1.5 0.5-1 0.3-1 0.2 0.2-1 0.3-1 0.5-1.5 0.5-1.5 18-54.5q18-54.5 28-89t15.5-56.5 5-32.5-5.5-38.5-4.5-35 2.2-12.8q1.8-5.7 7.3-4.4 5.5 1.2 6 2.4 0.5 1.3 1.5 1.6 1 0.2 2 2 1 1.7 2 2 1 0.2 4.5 4 3.5 3.7 8.3 10 4.7 6.2 11.2 18.2t10.2 30.2q3.8 18.3 14.8 32.8t13.2 17.2q2.3 2.8-11.4 23.3-13.8 20.5-14.8 20.5t-8.2 11q-7.3 11-18.8 43t-11.5 46.5 0.5 20 0.8 7.5z"/>
  </g>
  <g fill="#e6e7e5" stroke="#e6e7e5">
   <path d="m571.2 190.5l-0.2 1.5h-1.5q-1.5 0-13.7-19.5-12.3-19.5-2.8-40t15 9.5 4.5 38.5-1.3 10z"/>
   <path d="m424 145l0.5 1 0.5 1 0.5 1 0.5 1 0.5 1 0.5 1 0.5 1 0.3 1 0.2 1-1.5-0.2-1.5-0.3-0.2-0.3-0.3-0.2-0.3-0.2-0.2-0.3-1.5-0.5-1.5-0.5-15-7.7q-15-7.8-15-8.8t-5.2-4.5q-5.3-3.5-4.3-7.5t6.3-17q5.2-13 7.4-11 2.3 2 15.3 25.5t13.5 24.5z"/>
  </g>
 </g>
</svg>
