<?xml version="1.0" encoding="UTF-8"?>
<svg width="137px" height="93px" viewBox="0 0 137 93" version="1.1" xmlns="http://www.w3.org/2000/svg" xmlns:xlink="http://www.w3.org/1999/xlink">
    <!-- Generator: Sketch 53.2 (72643) - https://sketchapp.com -->
    <title>Slice</title>
    <desc>Created with Sketch.</desc>
    <g id="Page-1" stroke="none" stroke-width="1" fill="none" fill-rule="evenodd">
        <path d="M10.762,15.074 C10.602,14.027 9.092,14.027 8.934,15.074 L7.989,21.276 C7.929,21.676 7.614,21.99 7.214,22.051 L1.012,22.996 C-0.035,23.156 -0.035,24.666 1.012,24.826 L7.214,25.771 C7.614,25.831 7.928,26.146 7.989,26.546 L8.934,32.748 C9.094,33.795 10.604,33.795 10.762,32.748 L11.707,26.546 C11.767,26.146 12.082,25.832 12.482,25.771 L18.684,24.826 C19.731,24.666 19.731,23.156 18.684,22.996 L12.482,22.051 C12.082,21.991 11.768,21.676 11.707,21.276 L10.762,15.074 Z M128.53525,73.78525 C128.37525,72.73825 126.86525,72.73825 126.70725,73.78525 L125.76225,79.98725 C125.70225,80.38725 125.38725,80.70125 124.98725,80.76225 L118.78525,81.70725 C117.73825,81.86725 117.73825,83.37725 118.78525,83.53525 L124.98725,84.48025 C125.38725,84.54025 125.70125,84.85525 125.76225,85.25525 L126.70725,91.45525 C126.86725,92.50325 128.37725,92.50325 128.53525,91.45525 L129.48025,85.25525 C129.54025,84.85525 129.85525,84.54125 130.25525,84.48025 L136.45725,83.53525 C137.50525,83.37525 137.50525,81.86525 136.45725,81.70525 L130.25525,80.76025 C129.85525,80.70025 129.54125,80.38525 129.48025,79.98525 L128.53525,73.78325 L128.53525,73.78525 Z M47.974,0.308 C48.134,-0.739 49.644,-0.739 49.804,0.308 L50.104,2.348 C50.164,2.748 50.479,3.062 50.879,3.123 L52.919,3.423 C53.966,3.583 53.966,5.093 52.919,5.253 L50.879,5.553 C50.479,5.613 50.165,5.928 50.104,6.328 L49.804,8.368 C49.644,9.415 48.134,9.415 47.974,8.368 L47.674,6.328 C47.614,5.928 47.299,5.614 46.899,5.553 L44.859,5.253 C43.812,5.093 43.812,3.583 44.859,3.423 L46.899,3.123 C47.299,3.063 47.613,2.748 47.674,2.348 L47.974,0.308 Z" id="Shape" fill="#E4ECF2" fill-rule="nonzero" opacity="0.5"></path>
        <path d="M24.53525,43.55125 C24.37525,42.50425 22.86525,42.50425 22.70725,43.55125 L21.76225,49.75325 C21.70225,50.15325 21.38725,50.46725 20.98725,50.52825 L14.78525,51.47325 C13.73825,51.63325 13.73825,53.14325 14.78525,53.30325 L20.98725,54.24825 C21.38725,54.30825 21.70125,54.62325 21.76225,55.02325 L22.70725,61.22525 C22.86725,62.27225 24.37725,62.27225 24.53525,61.22525 L25.48025,55.02325 C25.54025,54.62325 25.85525,54.30925 26.25525,54.24825 L32.45725,53.30325 C33.50425,53.14325 33.50425,51.63325 32.45725,51.47325 L26.25525,50.52825 C25.85525,50.46825 25.54125,50.15325 25.48025,49.75325 L24.53525,43.55125 Z M70.53525,68.78525 C70.37525,67.73825 68.86525,67.73825 68.70725,68.78525 L67.76225,74.98725 C67.70225,75.38725 67.38725,75.70125 66.98725,75.76225 L60.78525,76.70725 C59.73825,76.86725 59.73825,78.37725 60.78525,78.53525 L66.98725,79.48025 C67.38725,79.54025 67.70125,79.85525 67.76225,80.25525 L68.70725,86.45525 C68.86725,87.50325 70.37725,87.50325 70.53525,86.45525 L71.48025,80.25525 C71.54025,79.85525 71.85525,79.54125 72.25525,79.48025 L78.45725,78.53525 C79.50525,78.37525 79.50525,76.86525 78.45725,76.70525 L72.25525,75.76025 C71.85525,75.70025 71.54125,75.38525 71.48025,74.98525 L70.53525,68.78325 L70.53525,68.78525 Z M61.74725,28.78525 C61.90725,27.73825 63.41725,27.73825 63.57725,28.78525 L63.87725,30.82525 C63.93725,31.22525 64.25225,31.53925 64.65225,31.60025 L66.69225,31.90025 C67.73925,32.06025 67.73925,33.57025 66.69225,33.73025 L64.65225,34.03025 C64.25225,34.09025 63.93825,34.40525 63.87725,34.80525 L63.57725,36.84525 C63.41725,37.89225 61.90725,37.89225 61.74725,36.84525 L61.44725,34.80525 C61.38725,34.40525 61.07225,34.09125 60.67225,34.03025 L58.63225,33.73025 C57.58525,33.57025 57.58525,32.06025 58.63225,31.90025 L60.67225,31.60025 C61.07225,31.54025 61.38625,31.22525 61.44725,30.82525 L61.74725,28.78525 Z" id="Shape" fill="#C9D9E5" fill-rule="nonzero" opacity="0.5"></path>
        <g id="iconfinder_salt_2564977" transform="translate(83.000000, 11.000000)" fill-rule="nonzero">
            <circle id="Oval" fill="#C9D9E5" cx="5" cy="33" r="1"></circle>
            <circle id="Oval" fill="#C9D9E5" cx="5" cy="37" r="1"></circle>
            <circle id="Oval" fill="#C9D9E5" cx="9" cy="35" r="1"></circle>
            <circle id="Oval" fill="#C9D9E5" cx="12" cy="34" r="1"></circle>
            <circle id="Oval" fill="#C9D9E5" cx="9" cy="31" r="1"></circle>
            <circle id="Oval" fill="#C9D9E5" cx="12" cy="38" r="1"></circle>
            <circle id="Oval" fill="#C9D9E5" cx="8" cy="39" r="1"></circle>
            <circle id="Oval" fill="#C9D9E5" cx="1" cy="36" r="1"></circle>
            <circle id="Oval" fill="#C9D9E5" cx="9" cy="43" r="1"></circle>
            <circle id="Oval" fill="#C9D9E5" cx="3" cy="40" r="1"></circle>
            <path d="M21.2,26.8 L37.9,17.5 C38.2,17.3 38.5,17.1 38.8,16.8 C39.6,16 40,15 40,13.9 L40,9.4 L32.6,2 L28.1,2 C27,2 26,2.4 25.2,3.2 C24.9,3.5 24.7,3.8 24.5,4.1 L15.2,20.8 L21.2,26.8 Z" id="Path" fill="#E2E7F0"></path>
            <path d="M26.1,5.8 C25.6,5.5 25,5.7 24.7,6.2 L21,12.8 C20.7,13.3 20.9,13.9 21.4,14.2 C21.6,14.3 21.7,14.3 21.9,14.3 C22.3,14.3 22.6,14.1 22.8,13.8 L26.5,7.2 C26.8,6.6 26.6,6 26.1,5.8 Z" id="Path" fill="#FFFFFF"></path>
            <path d="M37,6.4 L37,10.9 C37,12 36.6,13 35.8,13.8 C35.5,14.1 35.2,14.3 34.9,14.5 L18.2,23.8 L21.2,26.8 L37.9,17.5 C38.2,17.3 38.5,17.1 38.8,16.8 C39.6,16 40,15 40,13.9 L40,9.4 L37,6.4 Z" id="Path" fill="#C9D5E3"></path>
            <path d="M11.4,25 C11.2,25.2 11.2,25.5 11.2,25.7 C11.6,26.9 12.3,28 13.1,28.8 C14,29.7 15.1,30.3 16.2,30.7 C16.4,30.8 16.7,30.7 16.9,30.5 L19.5,27.9 L14,22.4 L11.4,25 Z" id="Path" fill="#B0C4D8"></path>
            <path d="M41.7,8.3 L33.7,0.3 C33.5,0.1 33.3,0 33,0 L28.1,0 C26.5,0 24.9,0.6 23.8,1.8 C23.4,2.2 23.1,2.7 22.8,3.2 L13.2,20.5 L10,23.6 C9.3,24.3 9,25.4 9.4,26.4 C9.9,27.9 10.7,29.2 11.8,30.3 C12.9,31.4 14.2,32.2 15.7,32.7 L15.7,32.7 C16,32.8 16.3,32.8 16.6,32.8 C17.3,32.8 18,32.5 18.5,32 L21.7,28.8 L39,19.2 C39.5,18.9 40,18.6 40.4,18.2 C41.6,17 42.2,15.5 42.2,13.9 L42.2,9 C42,8.7 41.9,8.5 41.7,8.3 Z M17,30.6 C16.8,30.8 16.5,30.8 16.3,30.8 C15.1,30.4 14.1,29.7 13.2,28.9 C12.3,28 11.7,27 11.3,25.8 C11.2,25.6 11.3,25.3 11.5,25.1 L14.1,22.5 L19.7,28.1 L17,30.6 Z M40,13.9 C40,15 39.6,16 38.8,16.8 C38.5,17.1 38.2,17.3 37.9,17.5 L21.2,26.8 L15.3,20.9 L24.6,4.2 C24.8,3.9 25,3.6 25.3,3.3 C26,2.4 27,2 28.1,2 L32.6,2 L40,9.4 L40,13.9 Z" id="Shape" fill="#014463"></path>
            <path d="M18.3,26.7 L15.8,29.2 C15.6,29.4 15.3,29.4 15.1,29.4 C14.1,29.1 13.1,28.5 12.3,27.8 C12.6,28.2 12.9,28.6 13.2,28.9 C14.1,29.8 15.2,30.4 16.3,30.8 C16.5,30.9 16.8,30.8 17,30.6 L19.6,28 L18.3,26.7 Z" id="Path" fill="#82A7C4"></path>
            <polygon id="Path" fill="#FFFFFF" points="16.8 18 15.2 20.8 21.2 26.8 36.9 18"></polygon>
            <polygon id="Path" fill="#E2E7F0" points="28.5 18 18.2 23.8 21.2 26.8 36.9 18"></polygon>
        </g>
    </g>
</svg>